:FULLY-SPECIFIED
:FORCE-ALL-JOINTS-BE-3DOF
:DEGREES
442
root 1.48949 15.2316 -9.1147 5.49212 4.83139 -13.5423
lfemur -46.8501 16.8114 3.9745
ltibia 62.9553 0 0
lfoot -24.9916 -10.2701 0
ltoes -12.7255 0 0
rfemur -14.9411 -3.44768 8.90199
rtibia 38.8284 0 0
rfoot -14.6389 -13.9723 0
rtoes -49.791 0 0
lowerback 6.02945 1.6015 4.3986
upperback 1.01281 2.43843 0.924751
thorax -2.1908 1.18676 -1.7001
lowerneck -7.15866 0.0337935 5.62298
upperneck 0.687406 -0.434285 0.0690367
head 1.41974 -0.189785 -0.949097
lclavicle 2.90226e-14 6.36111e-15 0
lhumerus -39.6318 -28.4329 97.6213
lradius 54.1431 0 0
lwrist 7.92235 0 0
lhand -20.0855 -1.30814 0
lfingers 7.12502 0 0
lthumb 6.25724 28.5794 0
rclavicle 2.90226e-14 6.36111e-15 0
rhumerus -48.3514 -2.52445 -89.7222
rradius 66.3347 0 0
rwrist 12.906 0 0
rhand -30.9208 -29.1118 0
rfingers 7.12502 0 0
rthumb -4.20662 -779.05 0
443
root 1.46543 15.24 -9.06898 5.58012 6.48668 -13.6847
lfemur -48.0858 17.6958 2.99295
ltibia 63.1833 0 0
lfoot -24.0333 -9.71324 0
ltoes -11.3094 0 0
rfemur -14.2892 -4.13409 9.23366
rtibia 38.6146 0 0
rfoot -14.5028 -14.4853 0
rtoes -49.8953 0 0
lowerback 5.88981 1.55413 4.57881
upperback 0.978019 2.38121 0.978956
thorax -2.14748 1.15789 -1.73687
lowerneck -7.14876 -0.128006 5.45616
upperneck 0.513481 -0.631475 0.0701176
head 1.35635 -0.292153 -0.924781
lclavicle 3.27978e-14 -8.45674e-15 0
lhumerus -39.6399 -28.0034 97.8142
lradius 54.2116 0 0
lwrist 7.60493 0 0
lhand -20.9797 -1.91116 0
lfingers 7.12502 0 0
lthumb 5.3938 27.996 0
rclavicle 3.27978e-14 -8.45674e-15 0
rhumerus -48.2281 -2.36932 -89.5736
rradius 66.2384 0 0
rwrist 12.775 0 0
rhand -30.0947 -28.4902 0
rfingers 7.12502 0 0
rthumb -3.40881 -778.44 0
444
root 1.44748 15.2523 -9.01617 5.65296 8.32081 -13.8551
lfemur -49.4064 18.6227 1.84343
ltibia 63.3992 0 0
lfoot -23.064 -9.07505 0
ltoes -9.73817 0 0
rfemur -13.536 -4.89269 9.60312
rtibia 38.3217 0 0
rfoot -14.2425 -14.9935 0
rtoes -50.0239 0 0
lowerback 5.70877 1.49346 4.81005
upperback 0.935298 2.30686 1.05356
thorax -2.08947 1.1205 -1.77899
lowerneck -7.13882 -0.306854 5.27765
upperneck 0.362029 -0.850928 0.0729292
head 1.29995 -0.4051 -0.898683
lclavicle 2.48058e-14 -1.92966e-14 0
lhumerus -39.7012 -27.5392 98.0726
lradius 54.2466 0 0
lwrist 7.23422 0 0
lhand -21.987 -2.62078 0
lfingers 7.12502 0 0
lthumb 4.42112 27.3047 0
rclavicle 2.48058e-14 -1.92966e-14 0
rhumerus -48.1407 -2.22528 -89.3539
rradius 66.1424 0 0
rwrist 12.6331 0 0
rhand -29.2892 -27.7927 0
rfingers 7.12502 0 0
rthumb -2.6309 -777.752 0
445
root 1.43574 15.2682 -8.9583 5.70721 10.2633 -14.044
lfemur -50.7584 19.5657 0.570951
ltibia 63.5942 0 0
lfoot -22.1157 -8.37405 0
ltoes -8.08088 0 0
rfemur -12.7071 -5.69176 9.99439
rtibia 37.9613 0 0
rfoot -13.8697 -15.4869 0
rtoes -50.1707 0 0
lowerback 5.49727 1.424 5.07619
upperback 0.886795 2.22092 1.14421
thorax -2.02074 1.07739 -1.82264
lowerneck -7.12935 -0.496512 5.09352
upperneck 0.23517 -1.0849 0.0775872
head 1.25149 -0.524725 -0.871613
lclavicle 1.23629e-14 -2.68539e-14 0
lhumerus -39.8098 -27.0579 98.3831
lradius 54.2495 0 0
lwrist 6.82504 0 0
lhand -23.0596 -3.40544 0
lfingers 7.12502 0 0
lthumb 3.3854 26.5367 0
rclavicle 1.23629e-14 -2.68539e-14 0
rhumerus -48.0908 -2.09725 -89.0754
rradius 66.0479 0 0
rwrist 12.4835 0 0
rhand -28.5337 -27.0543 0
rfingers 7.12502 0 0
rthumb -1.90136 -777.021 0
446
root 1.43029 15.2869 -8.89736 5.73946 12.2437 -14.2416
lfemur -52.0884 20.4983 -0.779462
ltibia 63.7592 0 0
lfoot -21.2207 -7.62877 0
ltoes -6.40647 0 0
rfemur -11.8283 -6.49956 10.3915
rtibia 37.5448 0 0
rfoot -13.3964 -15.9556 0
rtoes -50.3299 0 0
lowerback 5.26628 1.3503 5.36113
upperback 0.834657 2.12892 1.24655
thorax -1.94524 1.03132 -1.86398
lowerneck -7.12085 -0.690739 4.90984
upperneck 0.135024 -1.32567 0.0842072
head 1.21192 -0.647131 -0.844382
lclavicle 2.78529e-15 -3.18241e-14 0
lhumerus -39.96 -26.5769 98.7327
lradius 54.2218 0 0
lwrist 6.39218 0 0
lhand -24.1495 -4.23358 0
lfingers 7.12502 0 0
lthumb 2.33287 25.7228 0
rclavicle 2.78529e-15 -3.18241e-14 0
rhumerus -48.0797 -1.99016 -88.75
rradius 65.956 0 0
rwrist 12.3291 0 0
rhand -27.8579 -26.31 0
rfingers 7.12502 0 0
rthumb -1.24865 -776.282 0
447
root 1.43122 15.308 -8.83537 5.7463 14.1914 -14.4383
lfemur -53.3428 21.394 -2.16278
ltibia 63.8853 0 0
lfoot -20.411 -6.85772 0
ltoes -4.78393 0 0
rfemur -10.9255 -7.28438 10.7785
rtibia 37.0836 0 0
rfoot -12.8344 -16.3896 0
rtoes -50.4956 0 0
lowerback 5.02674 1.2769 5.64875
upperback 0.781029 2.03641 1.35625
thorax -1.86694 0.985098 -1.8992
lowerneck -7.11385 -0.883294 4.7327
upperneck 0.0637126 -1.56549 0.0929049
head 1.18218 -0.768417 -0.817801
lclavicle 3.38917e-15 -3.49027e-14 0
lhumerus -40.146 -26.1134 99.1082
lradius 54.1647 0 0
lwrist 5.95047 0 0
lhand -25.2089 -5.07364 0
lfingers 7.12502 0 0
lthumb 1.30976 24.8941 0
rclavicle 3.38917e-15 -3.49027e-14 0
rhumerus -48.1089 -1.90893 -88.3898
rradius 65.8681 0 0
rwrist 12.1733 0 0
rhand -27.2911 -25.5948 0
rfingers 7.12502 0 0
rthumb -0.701237 -775.571 0
